<?xml version="1.0" encoding="UTF-8" standalone="no"?>
<!-- Created with Inkscape (http://www.inkscape.org/) -->

<svg
   width="19.379999"
   height="21"
   viewBox="0 0 5.1276247 5.5562502"
   version="1.1"
   id="svg5"
   inkscape:version="1.1.2 (b8e25be833, 2022-02-05)"
   sodipodi:docname="logo-lattes-svg.svg"
   xmlns:inkscape="http://www.inkscape.org/namespaces/inkscape"
   xmlns:sodipodi="http://sodipodi.sourceforge.net/DTD/sodipodi-0.dtd"
   xmlns="http://www.w3.org/2000/svg"
   xmlns:svg="http://www.w3.org/2000/svg">
  <sodipodi:namedview
     id="namedview7"
     pagecolor="#505050"
     bordercolor="#eeeeee"
     borderopacity="1"
     inkscape:pageshadow="0"
     inkscape:pageopacity="0"
     inkscape:pagecheckerboard="0"
     inkscape:document-units="px"
     showgrid="false"
     inkscape:zoom="14.481547"
     inkscape:cx="-8.8388347"
     inkscape:cy="23.063834"
     inkscape:window-width="1920"
     inkscape:window-height="1017"
     inkscape:window-x="-8"
     inkscape:window-y="-8"
     inkscape:window-maximized="1"
     inkscape:current-layer="layer1"
     showguides="false"
     units="px"
     height="21px" />
  <defs
     id="defs2">
    <clipPath
       clipPathUnits="userSpaceOnUse"
       id="clipPath23">
      <path
         d="M 0,0 H 612 V 792 H 0 Z"
         id="path21" />
    </clipPath>
    <clipPath
       clipPathUnits="userSpaceOnUse"
       id="clipPath27">
      <path
         d="M 0,0 H 612 V 792 H 0 Z"
         id="path25" />
    </clipPath>
    <clipPath
       clipPathUnits="userSpaceOnUse"
       id="clipPath31">
      <path
         d="M 0,0 H 612 V 792 H 0 Z"
         id="path29" />
    </clipPath>
    <clipPath
       clipPathUnits="userSpaceOnUse"
       id="clipPath35">
      <path
         d="M 195,208 H 417 V 584 H 195 Z"
         id="path33" />
    </clipPath>
  </defs>
  <g
     inkscape:label="Camada 1"
     inkscape:groupmode="layer"
     id="layer1">
    <path
       style="fill:#000000;stroke-width:0.0215823"
       d="M 1.3751231,5.3943924 C 1.3538237,5.3542116 0.59659472,3.3646443 0.52900122,3.1712127 0.50721982,3.1088507 0.49302932,3.0579065 0.49744742,3.0579065 c 0.00446,0 0.1606949,0.038726 0.3472629,0.08609 C 1.3661078,3.2762384 1.5939239,3.305174 2.1057555,3.3041468 2.4807186,3.3034105 2.5826714,3.295969 2.7742584,3.2547835 3.5315781,3.0922783 4.006406,2.7238604 4.0919984,2.2323548 4.1221429,2.059241 4.0998206,1.8980544 4.0062095,1.6140433 3.9188929,1.349023 3.9079196,1.2882336 3.9473751,1.2882336 c 0.037709,0 0.2303569,0.1959585 0.3723696,0.378781 0.2708401,0.3486548 0.3972786,0.6759283 0.4141547,1.0719819 0.013081,0.3070285 -0.012736,0.4560429 -0.124746,0.719927 C 4.4991279,3.7181442 4.3960806,3.8906398 4.2397501,4.0772896 3.729244,4.6868105 2.8734267,5.1280083 1.7604351,5.3554388 c -0.148378,0.030362 -0.2912435,0.060089 -0.3174765,0.066089 -0.031544,0.00728 -0.054517,-0.00181 -0.067843,-0.026999 z m 0.029208,-2.324468 C 0.41643132,2.8926109 0.51403612,2.9187648 0.48763852,2.8243035 0.41429502,2.5618829 0.39132472,2.3437156 0.39065192,1.9032452 0.38983652,1.3765769 0.40461522,1.3000697 0.57500722,0.94816036 0.66252322,0.76741976 0.71084012,0.69818504 0.83870592,0.57031554 1.323259,0.08576436 2.1135505,7.0289129e-4 3.0925847,0.32772182 3.3358976,0.40899242 3.7513388,0.59690584 3.77603,0.63685024 3.808965,0.69012124 3.710487,0.70130324 3.4650688,0.67203164 3.1606239,0.63575994 2.6869589,0.63221424 2.5330735,0.66475584 2.2582334,0.72339024 2.0214148,0.89308616 1.9353871,1.0930629 1.7738667,1.468526 1.8609712,2.1184367 2.1833207,2.9428975 c 0.052309,0.1337784 0.095097,0.2483028 0.095097,0.2545027 0,0.024272 -0.1459446,0.00272 -0.8740868,-0.1277969 z M 2.9696161,2.5584739 C 2.9046359,2.5477468 2.7789201,2.5030207 2.6902424,2.4592308 2.3719958,2.3019804 2.1570415,2.0123332 2.1325983,1.707832 2.1225804,1.5830169 2.1284166,1.5544268 2.1896515,1.4301119 2.2998659,1.2062357 2.4564428,1.1240106 2.7640204,1.1284742 c 0.1902415,0.00272 0.3631825,0.06318 0.5546041,0.1936586 0.1836198,0.1251877 0.2856753,0.2384483 0.3638989,0.403844 0.077452,0.1637869 0.094811,0.276384 0.063925,0.4146804 -0.049181,0.220149 -0.1892887,0.351482 -0.4374179,0.4099805 -0.1499617,0.035362 -0.1704457,0.035817 -0.3394122,0.00818 z"
       id="path43" />
  </g>
</svg>
